<svg xmlns="http://www.w3.org/2000/svg" version="1.1" xmlns:xlink="http://www.w3.org/1999/xlink" xmlns:svgjs="http://svgjs.dev/svgjs" width="1000" height="1000" viewBox="0 0 1000 1000"><rect width="1000" height="1000" fill="#000000"></rect><g transform="matrix(0.7,0,0,0.7,149.7685818858007,190.500813412289)"><svg viewBox="0 0 279 247" data-background-color="#ee3e38" preserveAspectRatio="xMidYMid meet" height="885" width="1000" xmlns="http://www.w3.org/2000/svg" xmlns:xlink="http://www.w3.org/1999/xlink"><g id="tight-bounds" transform="matrix(1,0,0,1,0.0922366483737278,-0.10000147350345401)"><svg viewBox="0 0 278.81552670325254 247.2" height="247.2" width="278.81552670325254"><g><svg viewBox="0 0 278.81552670325254 247.2" height="247.2" width="278.81552670325254"><g><svg viewBox="0 0 278.81552670325254 247.2" height="247.2" width="278.81552670325254"><g><svg viewBox="0 0 278.81552670325254 247.2" height="247.2" width="278.81552670325254" id="textblock"><g><svg viewBox="0 0 278.81552670325254 247.2" height="247.2" width="278.81552670325254"><g transform="matrix(1,0,0,1,0,0)"><svg width="278.81552670325254" viewBox="-0.7300000190734863 -37.66800308227539 43.310001373291016 38.39800262451172" height="247.2" data-palette-color="#8d021f"><g class="undefined-text-0" data-fill-palette-color="primary" id="text-0"><path d="M22.9-34.91L22.9-34.91Q22.8-34.72 22.83-34.52 22.85-34.33 22.85-34.08L22.85-34.08Q22.75-33.5 22.85-33.5 22.95-33.5 22.95-33.4L22.95-33.4 22.61-32.91Q22.61-32.62 22.49-32.37 22.36-32.13 22.41-31.79L22.41-31.79Q22.27-31.54 22.14-31.3 22.02-31.05 21.78-30.81L21.78-30.81 21.14-30.81Q20.61-30.81 20-30.74 19.38-30.66 18.8-30.66L18.8-30.66Q18.7-30.66 18.55-30.69 18.41-30.71 18.26-30.71L18.26-30.71Q18.16-30.71 18.02-30.69 17.87-30.66 17.68-30.66L17.68-30.66Q16.94-30.66 16.24-30.74 15.53-30.81 14.75-30.81L14.75-30.81Q14.55-30.81 14.36-30.81 14.16-30.81 13.92-30.76L13.92-30.76Q13.87-29.93 13.84-29.08 13.82-28.22 13.82-27.34L13.82-27.34Q13.82-27.1 13.77-26.83 13.72-26.56 13.72-26.32L13.72-26.32Q13.67-25.68 13.65-25.1 13.62-24.51 13.62-23.88L13.62-23.88Q13.62-22.51 13.65-21.14 13.67-19.78 13.72-18.36L13.72-18.36Q13.77-17.63 13.82-16.94 13.87-16.26 13.87-15.53L13.87-15.53Q13.87-13.87 13.82-12.23 13.77-10.6 13.77-8.94L13.77-8.94Q13.77-8.4 13.72-7.93 13.67-7.47 13.67-6.93L13.67-6.93Q13.67-5.81 13.72-4.69 13.77-3.56 13.77-2.44L13.77-2.44Q13.77-1.9 13.75-1.37 13.72-0.83 13.72-0.29L13.72-0.29Q13.48 0.1 13.38 0.39 13.28 0.68 12.79 0.68L12.79 0.68Q12.45 0.59 12.48 0.46 12.5 0.34 12.4 0.24L12.4 0.24Q11.96 0.2 11.74 0.32 11.52 0.44 11.23 0.54L11.23 0.54Q11.08 0.49 10.91 0.49 10.74 0.49 10.6 0.49L10.6 0.49Q10.5 0.49 10.4 0.56 10.3 0.63 9.96 0.63L9.96 0.63Q9.67 0.68 9.62 0.54 9.57 0.39 9.33 0.39L9.33 0.39Q9.08 0.54 8.76 0.61 8.45 0.68 8.15 0.68L8.15 0.68Q7.86 0.49 7.89 0.32 7.91 0.15 7.81-0.05L7.81-0.05Q7.76-0.15 7.64-0.32 7.52-0.49 7.42-0.59L7.42-0.59Q7.52-1.27 7.57-1.81 7.62-2.34 7.62-2.98L7.62-2.98Q7.62-4.25 7.52-5.47 7.42-6.69 7.42-7.96L7.42-7.96Q7.42-8.35 7.52-8.79 7.62-9.23 7.62-9.72L7.62-9.72Q7.52-10.11 7.57-10.18 7.62-10.25 7.62-10.35L7.62-10.35Q7.62-10.64 7.59-10.94 7.57-11.23 7.57-11.52L7.57-11.52Q7.57-12.11 7.59-12.7 7.62-13.28 7.62-13.87L7.62-13.87Q7.62-14.11 7.59-14.38 7.57-14.65 7.57-14.89L7.57-14.89Q7.52-15.33 7.54-15.82 7.57-16.31 7.57-16.8L7.57-16.8Q7.57-19.14 7.5-21.44 7.42-23.73 7.42-26.07L7.42-26.07Q7.42-27.2 7.54-28.37 7.67-29.54 7.67-30.71L7.67-30.71Q7.67-30.86 7.57-31.1 7.47-31.35 7.37-31.45L7.37-31.45Q7.13-31.45 6.91-31.47 6.69-31.49 6.45-31.49L6.45-31.49Q5.91-31.49 5.42-31.35L5.42-31.35Q4.49-31.3 3.64-31.23 2.78-31.15 1.9-31.1L1.9-31.1Q1.32-31.15 1.2-31.13 1.07-31.1 0.93-31.1L0.93-31.1Q0.54-31.1 0.34-31.3L0.34-31.3 0.34-31.93Q0.05-32.52 0.1-32.57 0.15-32.62 0.15-32.71L0.15-32.71Q0.15-32.86-0.12-33.03-0.39-33.2-0.39-33.59L-0.39-33.59Q-0.44-33.98-0.59-34.18-0.73-34.38-0.73-34.57L-0.73-34.57Q-0.73-34.91-0.59-35.35L-0.59-35.35Q-0.15-35.6 0.27-35.69 0.68-35.79 1.22-35.94L1.22-35.94Q1.51-36.04 1.76-36.13 2-36.23 2.29-36.28L2.29-36.28Q2.64-36.33 2.98-36.33 3.32-36.33 3.66-36.38L3.66-36.38Q4.39-36.52 5.2-36.62 6.01-36.72 6.74-36.72L6.74-36.72Q7.42-36.72 8.11-36.55 8.79-36.38 9.33-36.38L9.33-36.38Q10.11-36.38 10.82-36.28 11.52-36.18 12.3-36.18L12.3-36.18Q12.4-36.18 12.62-36.11 12.84-36.04 13.13-36.04L13.13-36.04 17.87-36.04Q18.26-35.94 18.43-35.99 18.6-36.04 18.75-36.04L18.75-36.04Q19.14-36.04 19.48-35.99 19.82-35.94 20.21-35.94L20.21-35.94Q20.56-35.94 20.75-35.99L20.75-35.99Q21.14-35.94 21.48-35.77 21.83-35.6 22.27-35.6L22.27-35.6Q22.46-35.45 22.56-35.23 22.66-35.01 22.9-34.91ZM33.44-13.33L33.44-13.33Q33.54-13.09 34.18-12.28 34.81-11.47 35.62-10.52 36.42-9.57 37.2-8.69 37.99-7.81 38.28-7.42L38.28-7.42Q39.21-6.05 40.18-4.74 41.16-3.42 42.04-2L42.04-2Q42.28-1.76 42.43-1.39 42.58-1.03 42.58-0.63L42.58-0.63Q42.58-0.2 42.36-0.17 42.14-0.15 41.89-0.05L41.89-0.05Q41.4 0.29 41.01 0.34 40.62 0.39 40.38 0.39L40.38 0.39Q39.84 0.39 39.21 0.37 38.57 0.34 38.13 0.44L38.13 0.44Q37.99 0.49 37.79 0.61 37.6 0.73 37.5 0.73L37.5 0.73Q37.11 0.73 36.94 0.61 36.77 0.49 36.47 0.39L36.47 0.39Q36.08-0.05 35.76-0.54 35.45-1.03 35.1-1.51L35.1-1.51Q34.81-1.86 34.47-2.12 34.13-2.39 33.84-2.78L33.84-2.78Q33.05-3.91 32.25-4.93 31.44-5.96 30.61-6.98L30.61-6.98Q30.22-7.52 29.76-8.01 29.29-8.5 28.9-8.98L28.9-8.98Q28.51-9.52 28.17-10.11 27.83-10.69 27.44-11.23L27.44-11.23Q27.15-11.72 26.61-12.43 26.07-13.13 25.49-13.87 24.9-14.6 24.29-15.26 23.68-15.92 23.24-16.26L23.24-16.26Q23.24-16.6 23.04-16.75 22.85-16.89 22.6-17.09L22.6-17.09Q22.51-17.33 22.36-17.55 22.21-17.77 22.21-18.07L22.21-18.07Q22.21-18.26 22.26-18.41 22.31-18.55 22.36-18.7L22.36-18.7Q22.46-18.9 22.48-19.07 22.51-19.24 22.6-19.43L22.6-19.43Q22.85-20.07 23.31-20.56 23.78-21.04 24.02-21.68L24.02-21.68Q24.07-21.88 24.07-22.05 24.07-22.22 24.17-22.41L24.17-22.41Q24.31-22.71 24.61-23 24.9-23.29 25.14-23.63L25.14-23.63Q25.39-24.07 25.63-24.51 25.88-24.95 26.12-25.39L26.12-25.39Q26.8-26.51 27.63-27.56 28.46-28.61 29.2-29.64L29.2-29.64Q29.88-30.62 30.47-31.57 31.05-32.52 31.74-33.5L31.74-33.5Q32.08-33.98 32.52-34.59 32.96-35.21 33.42-35.79 33.88-36.38 34.37-36.89 34.86-37.4 35.35-37.65L35.35-37.65Q36.18-37.74 36.42-37.38 36.67-37.01 37.11-37.01L37.11-37.01Q37.79-36.87 38.03-36.57 38.28-36.28 38.52-36.04L38.52-36.04Q39.16-36.04 39.6-35.79 40.04-35.55 40.48-35.06L40.48-35.06Q40.28-34.52 39.96-34.08 39.65-33.64 39.4-33.15L39.4-33.15Q39.01-33.01 38.84-32.67 38.67-32.32 38.33-32.08L38.33-32.08Q37.79-31.25 37.25-30.44 36.72-29.64 36.18-28.91L36.18-28.91Q35.94-28.61 35.62-28.44 35.3-28.27 35.1-27.93L35.1-27.93Q35.01-27.78 34.96-27.61 34.91-27.44 34.81-27.29L34.81-27.29Q34.23-26.37 33.49-25.49 32.76-24.61 32.22-23.63L32.22-23.63Q31.98-23.29 31.83-22.92 31.69-22.56 31.49-22.22L31.49-22.22Q31.3-21.92 30.93-21.39 30.56-20.85 30.2-20.29 29.83-19.73 29.56-19.21 29.29-18.7 29.29-18.36L29.29-18.36Q29.34-18.12 29.93-17.38 30.52-16.65 31.22-15.82 31.93-14.99 32.59-14.26 33.25-13.53 33.44-13.33Z" fill="#ffffff" data-fill-palette-color="primary"></path></g></svg></g></svg></g></svg></g></svg></g></svg></g><defs></defs></svg><rect width="278.81552670325254" height="247.2" fill="none" stroke="none" visibility="hidden"></rect></g></svg></g></svg>